<svg xmlns="http://www.w3.org/2000/svg" viewBox="0 0 391.5 199.89"><defs><style>.cls-1{fill:#fff;}.cls-2,.cls-3{fill:#FF0000;}.cls-3{font-size:66.65px;font-family:CircularStd-Black, Circular Std;font-weight:800;}.cls-4{letter-spacing:0em;}</style></defs><title>Ativo 6</title><g id="Camada_2" data-name="Camada 2"><g id="Camada_1-2" data-name="Camada 1"><path class="cls-1" d="M132.75,47.41v66.78H113.84V47.41H87.75V29.34H159V47.41Z"/><path class="cls-1" d="M213.42,97h-32.8l-6.1,17.23H154.65l32-84.85h21.9l31.6,84.85H219.52ZM186.85,79.73h20.58L197.26,50.4Z"/><path class="cls-1" d="M276.13,82.6h-6.7v31.59H250.52V29.34h33.63c16.75,0,27.52,11.49,27.52,26.57,0,11.49-6.34,20.22-16.75,23.94l17.23,34.34H291.33Zm4.43-16.28c7.78,0,12-4.31,12-10.29,0-6.34-4.18-10.29-12-10.29H269.43V66.32Z"/><path class="cls-1" d="M363.73,47.41v66.78H344.82V47.41H318.73V29.34h71.21V47.41Z"/><polygon class="cls-2" points="119.71 69.11 8.71 5.03 8.71 5.03 0 0 4.36 135.71 8.37 15.39 102.65 70.19 12.41 133.08 119.71 69.13 119.69 69.12 119.71 69.11"/><path class="cls-1" d="M62.34,55c-.6-4-3.83-10.65-14.13-10.65-7.06,0-11.61,4.43-11.61,9.1,0,4.06,2.52,7.06,8.38,8.13l11.37,2.16c16.16,3,24.54,13.4,24.54,25.49,0,13.28-11.13,26.81-31.36,26.81C26.07,116,16,100.79,14.82,88.82l17.36-4.19c.72,7.78,6,14.6,17.59,14.6,7.42,0,12-3.59,12-8.85,0-4.31-3.47-7.42-9.1-8.5L41,79.73C26.67,77,17.94,67.4,17.94,54.83c0-16,14.12-27.29,30.39-27.29,21.19,0,29.21,12.69,31,22.62Z"/><path class="cls-2" d="M81.19,85.14,38,115.28c.6.11,1.13.27,1.76.35s1.2.07,1.76.13l40-23.82c.38-1.73.08-2.46,0-4.19C81.4,87.18,81.23,85.7,81.19,85.14Z"/><text class="cls-3" transform="translate(113.44 182.03)"><tspan class="cls-4">S</tspan><tspan x="40.52" y="0">UMMIT</tspan></text></g></g></svg>