<?xml version="1.0" encoding="UTF-8"?>
<svg width="391px" height="184px" viewBox="0 0 391 184" version="1.1" xmlns="http://www.w3.org/2000/svg" xmlns:xlink="http://www.w3.org/1999/xlink">
    <!-- Generator: Sketch 55.2 (78181) - https://sketchapp.com -->
    <title>logo</title>
    <desc>Created with Sketch.</desc>
    <defs>
        <path d="M37.65725,30.34225 L28.19295,33.00825 C27.8597,30.8088 26.06015,27.0764 20.32825,27.0764 C16.3959,27.0764 13.8632,29.54245 13.8632,32.1418 C13.8632,34.4079 15.26285,36.07415 18.5287,36.674 L24.86045,37.8737 C33.8582,39.53995 38.5237,45.3385 38.5237,52.07015 C38.5237,59.4683 32.32525,66.99975 21.0614,66.99975 C7.998,66.99975 2.3994,58.5352 1.7329,51.8702 L11.39715,49.53745 C11.79705,53.8697 14.72965,57.66875 21.1947,57.66875 C25.327,57.66875 27.8597,55.66925 27.8597,52.73665 C27.8597,50.33725 25.92685,48.60435 22.7943,48.0045 L16.32925,46.8048 C8.33125,45.27185 3.4658,39.93985 3.4658,32.9416 C3.4658,24.0105 11.3305,17.7454 20.3949,17.7454 C32.19195,17.7454 36.6575,24.8103 37.65725,30.34225 Z" id="path-1"></path>
        <path d="M63.9808,67.0664 C53.5834,67.0664 45.25215,60.8013 45.25215,48.9376 L45.25215,18.74515 L55.78285,18.74515 L55.78285,48.07115 C55.78285,53.80305 58.98205,56.669 63.9808,56.669 C68.97955,56.669 72.17875,53.80305 72.17875,48.07115 L72.17875,18.74515 L82.70945,18.74515 L82.70945,48.9376 C82.70945,60.8013 74.3782,67.0664 63.9808,67.0664 Z M146.0936,66 L135.76285,66 L135.76285,34.6745 L123.4326,66 L114.9014,66 L102.57115,35.0744 L102.57115,66 L92.57365,66 L92.57365,18.74515 L106.30355,18.74515 L119.3003,50.6705 L131.63055,18.74515 L146.0936,18.74515 L146.0936,66 Z M209.87765,66 L199.5469,66 L199.5469,34.6745 L187.21665,66 L178.68545,66 L166.3552,35.0744 L166.3552,66 L156.3577,66 L156.3577,18.74515 L170.0876,18.74515 L183.08435,50.6705 L195.4146,18.74515 L209.87765,18.74515 L209.87765,66 Z M230.80575,66 L220.14175,66 L220.14175,18.74515 L230.80575,18.74515 L230.80575,66 Z M276.79425,28.8093 L262.1979,28.8093 L262.1979,66 L251.6672,66 L251.6672,28.8093 L237.1375,28.8093 L237.1375,18.74515 L276.79425,18.74515 L276.79425,28.8093 Z" id="path-2"></path>
    </defs>
    <g id="Page-1" stroke="none" stroke-width="1" fill="none" fill-rule="evenodd">
        <g id="logo" fill-rule="nonzero">
            <polygon id="Path" fill="#FFFFFF" points="132.75 47.41 132.75 114.19 113.84 114.19 113.84 47.41 87.75 47.41 87.75 29.34 159 29.34 159 47.41"></polygon>
            <path d="M213.42,97 L180.62,97 L174.52,114.23 L154.65,114.23 L186.65,29.38 L208.55,29.38 L240.15,114.23 L219.52,114.23 L213.42,97 Z M186.85,79.73 L207.43,79.73 L197.26,50.4 L186.85,79.73 Z" id="Shape" fill="#FFFFFF"></path>
            <path d="M276.13,82.6 L269.43,82.6 L269.43,114.19 L250.52,114.19 L250.52,29.34 L284.15,29.34 C300.9,29.34 311.67,40.83 311.67,55.91 C311.67,67.4 305.33,76.13 294.92,79.85 L312.15,114.19 L291.33,114.19 L276.13,82.6 Z M280.56,66.32 C288.34,66.32 292.56,62.01 292.56,56.03 C292.56,49.69 288.38,45.74 280.56,45.74 L269.43,45.74 L269.43,66.32 L280.56,66.32 Z" id="Shape" fill="#FFFFFF"></path>
            <polygon id="Path" fill="#FFFFFF" points="363.73 47.41 363.73 114.19 344.82 114.19 344.82 47.41 318.73 47.41 318.73 29.34 389.94 29.34 389.94 47.41"></polygon>
            <polygon id="Path" fill="#FF0000" points="119.71 69.11 8.71 5.03 8.71 5.03 0 0 4.36 135.71 8.37 15.39 102.65 70.19 12.41 133.08 119.71 69.13 119.69 69.12"></polygon>
            <path d="M62.34,55 C61.74,51 58.51,44.35 48.21,44.35 C41.15,44.35 36.6,48.78 36.6,53.45 C36.6,57.51 39.12,60.51 44.98,61.58 L56.35,63.74 C72.51,66.74 80.89,77.14 80.89,89.23 C80.89,102.51 69.76,116.04 49.53,116.04 C26.07,116 16,100.79 14.82,88.82 L32.18,84.63 C32.9,92.41 38.18,99.23 49.77,99.23 C57.19,99.23 61.77,95.64 61.77,90.38 C61.77,86.07 58.3,82.96 52.67,81.88 L41,79.73 C26.67,77 17.94,67.4 17.94,54.83 C17.94,38.83 32.06,27.54 48.33,27.54 C69.52,27.54 77.54,40.23 79.33,50.16 L62.34,55 Z" id="Path" fill="#FFFFFF"></path>
            <path d="M81.19,85.14 L38,115.28 C38.6,115.39 39.13,115.55 39.76,115.63 C40.39,115.71 40.96,115.7 41.52,115.76 L81.52,91.94 C81.9,90.21 81.6,89.48 81.52,87.75 C81.4,87.18 81.23,85.7 81.19,85.14 Z" id="Path" fill="#FF0000"></path>
            <g id="Group" transform="translate(113.440000, 116.030000)">
                <g id="S">
                    <use fill="#000000" xlink:href="#path-1"></use>
                    <use fill="#FF0000" xlink:href="#path-1"></use>
                </g>
                <g id="UMMIT">
                    <use fill="#000000" xlink:href="#path-2"></use>
                    <use fill="#FF0000" xlink:href="#path-2"></use>
                </g>
            </g>
        </g>
    </g>
</svg>