<?xml version="1.0" encoding="UTF-8"?>
<svg width="61px" height="38px" viewBox="0 0 61 38" version="1.1" xmlns="http://www.w3.org/2000/svg" xmlns:xlink="http://www.w3.org/1999/xlink">
    <!-- Generator: Sketch 52.6 (67491) - http://www.bohemiancoding.com/sketch -->
    <title>marca-preta</title>
    <desc>Created with Sketch.</desc>
    <defs>
        <polygon id="path-1" points="0.197071484 0.317996667 11.7586618 0.317996667 11.7586618 37.3666667 0.197071484 37.3666667"></polygon>
        <polygon id="path-3" points="0.323529412 0.317933333 10.8285294 0.317933333 10.8285294 37.3666667 0.323529412 37.3666667"></polygon>
        <polygon id="path-5" points="0.251964706 0.317933333 10.6719412 0.317933333 10.6719412 37.3666667 0.251964706 37.3666667"></polygon>
        <polygon id="path-7" points="0 0.410718367 26.5023 0.410718367 26.5023 30.5275347 0 30.5275347"></polygon>
    </defs>
    <g id="Page-1" stroke="none" stroke-width="1" fill="none" fill-rule="evenodd">
        <g id="marca-preta">
            <path d="M9,38 C8.21545075,38 7.51561512,37.8931075 6.9011253,37.6786899 C6.28600329,37.4642723 5.76444557,37.1663647 5.33645214,36.782437 C4.90845872,36.3991419 4.58351245,35.9450067 4.36098116,35.418134 C4.13781768,34.8925262 4.02655203,34.325806 4.02655203,33.7192383 L4.02655203,25.63968 C4.02655203,25.2835823 4.22253129,25.1045848 4.61448982,25.1045848 L6.19243899,25.1045848 C6.31698065,25.1045848 6.45543052,25.1229273 6.60652421,25.1577148 C6.75825009,25.1943998 6.89606777,25.2519573 7.02124162,25.3322849 C7.14578328,25.4126124 7.25262359,25.5195049 7.34176255,25.6529625 C7.4315337,25.78642 7.47578708,25.9432801 7.47578708,26.1216452 L7.47578708,33.6123457 C7.47578708,33.9690759 7.60032874,34.281531 7.85067644,34.5484461 C8.09975977,34.8166262 8.48286762,34.9500838 9,34.9500838 C9.53483373,34.9500838 9.92679226,34.8166262 10.1765078,34.5484461 C10.4255911,34.281531 10.5513971,33.9690759 10.5513971,33.6123457 C10.5513971,31.846405 10.3908206,30.1917843 10.0696675,28.6497487 C9.74851435,27.1064481 9.34264762,25.613115 8.85269946,24.1684844 C8.3621191,22.7238538 7.83676824,21.2969332 7.27538248,19.8877227 C6.71336452,18.4791446 6.18801366,17.0161715 5.6974333,15.5000684 C5.20685295,13.9845978 4.80161841,12.3925946 4.48109748,10.7246914 C4.15994437,9.05742077 4,7.24277753 4,5.28076174 C4,4.67482649 4.11505879,4.11253376 4.34707295,3.59514855 C4.57845492,3.07839584 4.90845872,2.62805566 5.33645214,2.244128 C5.76444557,1.86083285 6.28600329,1.55786523 6.9011253,1.33459264 C7.51561512,1.11195255 8.1977494,1 8.94689594,1 C9.71247945,1 10.4078897,1.11195255 11.0318624,1.33459264 C11.6564673,1.55786523 12.1906689,1.86083285 12.6363636,2.244128 C13.0820584,2.62805566 13.4209129,3.07839584 13.652927,3.59514855 C13.884309,4.11253376 14,4.67482649 14,5.28076174 L14,13.6272351 C14,13.9845978 13.7951701,14.1623303 13.3855102,14.1623303 L11.834113,14.1623303 C11.5673284,14.1623303 11.2866355,14.0826353 10.9920344,13.9219802 C10.6980655,13.7613252 10.5513971,13.4937776 10.5513971,13.1193374 L10.5513971,5.41421929 C10.5513971,5.05748914 10.4255911,4.74123902 10.1765078,4.4642039 C9.92679226,4.18780129 9.53483373,4.04991624 9,4.04991624 C8.46516627,4.04991624 8.07320774,4.19286129 7.82349222,4.47811891 C7.57377671,4.76337653 7.44860286,5.07583165 7.44860286,5.41421929 C7.44860286,7.05555745 7.60917942,8.60708058 7.93033253,10.0694212 C8.25148565,11.5317618 8.65672019,12.9719649 9.14730054,14.3900304 C9.6372487,15.808096 10.1632318,17.2255291 10.7246175,18.6435947 C11.2866355,20.0616602 11.8119863,21.5461383 12.3025667,23.0976615 C12.7925149,24.6498171 13.1983816,26.2949503 13.5189025,28.034326 C13.8400556,29.7730692 14,31.6680399 14,33.7192383 C14,34.325806 13.884309,34.8925262 13.652927,35.418134 C13.4209129,35.9450067 13.0915413,36.3991419 12.6635479,36.782437 C12.2355544,37.1663647 11.7095714,37.4642723 11.0855987,37.6786899 C10.461626,37.8931075 9.7662157,38 9,38" id="Fill-1" fill="#FFFFFF"></path>
            <path d="M25.3784153,1 C25.7925981,1 26,1.2384526 26,1.71599029 L26,2.239068 C26,2.84500325 25.8602832,3.29850593 25.5814704,3.60147355 C25.3014158,3.90444118 24.9095877,4.05624124 24.4053651,4.05624124 L22.8107303,4.05624124 L22.8107303,37.2289822 C22.8107303,37.7432049 22.557998,38 22.0537755,38 L20.0542722,38 C19.783532,38 19.5947591,37.940545 19.4867114,37.8210024 C19.3780427,37.7014599 19.3240189,37.5047523 19.3240189,37.2289822 L19.3240189,4.05624124 L17.5946349,4.05624124 C16.530924,4.05624124 16,3.45030599 16,2.239068 L16,1.71599029 C16,1.2384526 16.2067809,1 16.6215847,1 L25.3784153,1 Z" id="Fill-3" fill="#FFFFFF"></path>
            <g id="Group-7" transform="translate(25.000000, 0.000000)">
                <g id="Fill-5-Clipped">
                    <mask id="mask-2" fill="white">
                        <use xlink:href="#path-1"></use>
                    </mask>
                    <g id="path-1"></g>
                    <path d="M4.4982,28.0763633 L7.45753333,28.0763633 L5.9782,5.52779667 L4.4982,28.0763633 Z M11.7522,36.7327633 C11.7715333,36.97153 11.7475333,37.1374633 11.6795333,37.2286633 C11.6115333,37.32113 11.4428667,37.36673 11.1722,37.36673 L9.40153333,37.36673 C9.01486667,37.36673 8.68086667,37.24703 8.40086667,37.0088967 C8.1202,36.77013 7.9702,36.4483967 7.95086667,36.0436967 L7.60286667,31.02643 L4.35286667,31.02643 L4.00486667,36.0436967 C3.98553333,36.4483967 3.8402,36.77013 3.56953333,37.0088967 C3.2982,37.24703 2.9702,37.36673 2.58286667,37.36673 L0.812866667,37.36673 C0.522866667,37.36673 0.3442,37.32113 0.2762,37.2286633 C0.2082,37.1374633 0.1842,36.97153 0.203533333,36.7327633 L3.39553333,1.09003 C3.4342,0.758796667 3.5502,0.547896667 3.74353333,0.456063333 C3.93686667,0.36423 4.1982,0.317996667 4.52686667,0.317996667 L7.45753333,0.317996667 C7.8062,0.317996667 8.06753333,0.36423 8.24153333,0.456063333 C8.41553333,0.547896667 8.52153333,0.758796667 8.5602,1.09003 L11.7522,36.7327633 Z" id="Fill-5" fill="#FFFFFF" fill-rule="nonzero" mask="url(#mask-2)"></path>
                </g>
            </g>
            <g id="Group-10" transform="translate(38.000000, 0.000000)">
                <g id="Fill-8-Clipped">
                    <mask id="mask-4" fill="white">
                        <use xlink:href="#path-3"></use>
                    </mask>
                    <g id="path-3"></g>
                    <path d="M3.95676471,3.37788333 L3.95676471,18.9521833 L5.70252941,18.9521833 C5.98464706,18.9521833 6.22341176,18.8932833 6.42076471,18.7735833 C6.61811765,18.6538833 6.77276471,18.49745 6.88535294,18.3042833 C6.99858824,18.11175 7.07817647,17.90085 7.12476471,17.6703167 C7.17135294,17.44105 7.19529412,17.2067167 7.19529412,16.96795 L7.19529412,4.78388333 C7.19529412,4.41655 7.06394118,4.09038333 6.80123529,3.80475 C6.53788235,3.52038333 6.12505882,3.37788333 5.56211765,3.37788333 L3.95676471,3.37788333 Z M10.8285294,36.70515 C10.8285294,36.9629167 10.7812941,37.1370833 10.6874706,37.2289167 C10.5936471,37.32075 10.4150588,37.3669833 10.1523529,37.3669833 L8.60394118,37.3669833 C8.228,37.3669833 7.89929412,37.2377833 7.61782353,36.98065 C7.33635294,36.7235167 7.19529412,36.4017833 7.19529412,36.0160833 L7.19529412,23.4178167 C7.19529412,23.0504833 7.06394118,22.7243167 6.80123529,22.4393167 C6.53788235,22.15495 6.12505882,22.01245 5.56211765,22.01245 L3.95676471,22.01245 L3.95676471,36.0160833 C3.95676471,36.4017833 3.81117647,36.7235167 3.52,36.98065 C3.22882353,37.2377833 2.89558824,37.3669833 2.52029412,37.3669833 L0.971235294,37.3669833 C0.707882353,37.3669833 0.534470588,37.32075 0.450352941,37.2289167 C0.365588235,37.1370833 0.323529412,36.9629167 0.323529412,36.70515 L0.323529412,0.97945 C0.323529412,0.722316667 0.365588235,0.54815 0.450352941,0.455683333 C0.534470588,0.36385 0.707882353,0.317616667 0.971235294,0.317616667 L5.61841176,0.317616667 C6.51911765,0.317616667 7.29429412,0.44175 7.942,0.690016667 C8.58970588,0.938283333 9.12935294,1.26888333 9.56094118,1.68245 C9.99317647,2.09601667 10.3115294,2.56911667 10.5185882,3.10175 C10.725,3.63565 10.8285294,4.18665 10.8285294,4.75601667 L10.8285294,17.0224167 C10.8285294,18.6766833 10.2371176,19.87115 9.05429412,20.60645 C10.2371176,21.1207167 10.8285294,22.0491833 10.8285294,23.3905833 L10.8285294,36.70515 Z" id="Fill-8" fill="#FFFFFF" fill-rule="nonzero" mask="url(#mask-4)"></path>
                </g>
            </g>
            <g id="Group-13" transform="translate(50.000000, 0.000000)">
                <g id="Fill-11-Clipped">
                    <mask id="mask-6" fill="white">
                        <use xlink:href="#path-5"></use>
                    </mask>
                    <g id="path-5"></g>
                    <path d="M10.0244941,0.317933333 C10.4560824,0.317933333 10.6722,0.5567 10.6722,1.03486667 L10.6722,1.55863333 C10.6722,2.16536667 10.5266118,2.61946667 10.2360824,2.92283333 C9.94490588,3.2262 9.53596471,3.3782 9.0112,3.3782 L7.34890588,3.3782 L7.34890588,36.5946333 C7.34890588,37.1095333 7.0862,37.3666667 6.56014118,37.3666667 L4.47661176,37.3666667 C4.19449412,37.3666667 3.99778824,37.3071333 3.8852,37.1874333 C3.77196471,37.0677333 3.71567059,36.8707667 3.71567059,36.5946333 L3.71567059,3.3782 L1.91361176,3.3782 C0.8052,3.3782 0.251964706,2.77146667 0.251964706,1.55863333 L0.251964706,1.03486667 C0.251964706,0.5567 0.467435294,0.317933333 0.899670588,0.317933333 L10.0244941,0.317933333 Z" id="Fill-11" fill="#FFFFFF" mask="url(#mask-6)"></path>
                </g>
            </g>
            <g id="Group-16" transform="translate(0.000000, 4.000000)">
                <g id="Fill-14-Clipped">
                    <mask id="mask-8" fill="white">
                        <use xlink:href="#path-7"></use>
                    </mask>
                    <g id="path-7"></g>
                    <path d="M1.92844286,3.69798367 L22.6451571,15.4691265 L1.92844286,27.2396367 L1.92844286,3.69798367 Z M-0.000128571429,0.410718367 L-0.000128571429,30.5275347 L26.5023,15.4691265 L-0.000128571429,0.410718367 Z" id="Fill-14" fill="#E13F48" fill-rule="nonzero" mask="url(#mask-8)"></path>
                </g>
            </g>
            <path d="M8,12 C7.87717744,11.4670699 7.73664009,10.9032258 7.63271332,10.3642473 C7.56480661,10.0120968 7.51402421,9.63508065 7.46147033,9.27284946 L4,7 C4.03602008,7.84543011 4.1110127,8.72177419 4.20135813,9.51075269 L8,12 Z" id="Fill-17" fill="#FFFFFF"></path>
        </g>
    </g>
</svg>